<svg width="80" height="81" viewBox="0 0 80 81" fill="none" xmlns="http://www.w3.org/2000/svg"><g clip-path="url(#clip0)"><path d="M40 80.002c-22.057 0-40-17.943-40-40C0 17.946 17.943 0 40 0s40 17.946 40 40.002c0 22.057-17.943 40-40 40zm0-77.987c-20.946 0-37.985 17.042-37.985 37.987 0 20.946 17.04 37.985 37.985 37.985 20.946 0 37.985-17.041 37.985-37.984 0-20.944-17.04-37.988-37.985-37.988z" fill="#724239"/><path d="M40 70.244a30.019 30.019 0 01-24.22-12.127l-.603-.806h49.65l-.601.806A30.02 30.02 0 0140 70.244zM17.218 58.319a29.237 29.237 0 0045.574 0H17.218zM70.208 40.645H9.788l-.027-.476V40a30.241 30.241 0 1160.483 0v.171l-.036.474zm-59.45-1.008h58.468a29.237 29.237 0 00-58.467 0z" fill="#724239"/><path d="M42.156 75.448a1.009 1.009 0 01-.073-2.015h.038a1.01 1.01 0 01.12 2.015l-.06-1.008.05 1.008h-.075zm-8.605-.534a1.138 1.138 0 01-.181-.018h-.038a1.008 1.008 0 01.39-1.977 1.008 1.008 0 01.464 1.76c-.177.149-.4.232-.632.235h-.003zm17.1-1.076a1.008 1.008 0 01-.3-1.97 1.007 1.007 0 01.64 1.91h-.038a.97.97 0 01-.3.06h-.002zm-25.33-1.592c-.151 0-.301-.034-.438-.1l.439-.907-.444.904a1.008 1.008 0 01.837-1.834l.045.023a1.008 1.008 0 01-.439 1.914zm33.159-2.1a1.008 1.008 0 11.861-1.555 1.007 1.007 0 01-.297 1.38l-.035.02a.99.99 0 01-.53.154zM18.01 67.608a.985.985 0 01-.63-.23l-.025-.02a1.008 1.008 0 011.298-1.544 1.02 1.02 0 01.133 1.426 1.008 1.008 0 01-.776.368zm47.13-2.968a1.007 1.007 0 11.702-1.745 1.007 1.007 0 01.048 1.41l-.023.026a1.008 1.008 0 01-.728.31zm-53.057-3.335a.985.985 0 01-.796-.4l-.028-.04a1.008 1.008 0 11.824.44zm58.147-3.655a.993.993 0 01-.504-.139 1.02 1.02 0 111.408-.41l-.027.053a1.007 1.007 0 01-.877.496zM7.922 53.744a1.008 1.008 0 01-.94-.642l.94-.366-.942.358a1.008 1.008 0 011.864-.763l.018.043a1.007 1.007 0 01-.94 1.37zm65.496-4.131a1.022 1.022 0 11.985-.791v.053a1.008 1.008 0 01-.98.738h-.005zM5.766 45.37a1.007 1.007 0 01-1.008-.887l1.008-.121-1.008.116a1.007 1.007 0 011.996-.29v.053a1.008 1.008 0 01-1.008 1.129h.02zm68.737-4.338a1.008 1.008 0 01-1.007-1.008v-.033a1.008 1.008 0 112.015-.053v.099a1.007 1.007 0 01-1.008.995zM5.761 36.725a1.007 1.007 0 01-1.008-1.13l1.008.12-1.008-.144a1.008 1.008 0 012 .24v.028a1.008 1.008 0 01-.992.886zm67.65-4.35a1.008 1.008 0 01-.966-.733v-.053A1.007 1.007 0 1174.4 31.1l-.977.252.98-.237a1.008 1.008 0 01-.993 1.26zM7.896 28.347a1.008 1.008 0 01-.942-1.373l.023-.053a1.007 1.007 0 11.92 1.426zm62.327-4a1.008 1.008 0 11.886-1.484 1.009 1.009 0 01-.886 1.489v-.005zm-58.165-3.575a1.008 1.008 0 01-.809-1.61l.809.602-.806-.602a1.007 1.007 0 111.65 1.157l-.036.047a1.008 1.008 0 01-.808.406zm53.066-3.4a1.008 1.008 0 01-.725-.313l-.026-.025a1.008 1.008 0 011.461-1.388l-.733.69.756-.68a1.007 1.007 0 01-.728 1.705l-.005.01zm-47.152-2.923a1.008 1.008 0 01-.645-1.783l.645.776-.627-.786a1.005 1.005 0 011.453.094 1.007 1.007 0 01-.158 1.447l-.025.023c-.181.149-.408.23-.643.23zm40.484-2.597a.988.988 0 01-.529-.151l-.035-.023a1.008 1.008 0 011.09-1.695l-.546.849.554-.844a1.008 1.008 0 01-.534 1.864zM25.28 9.792a1.007 1.007 0 01-.915-.565 1.008 1.008 0 01.459-1.34h.017a1.008 1.008 0 01.882 1.811c-.139.065-.29.097-.443.094zM50.63 8.177a.968.968 0 01-.3-.048h-.037a1.008 1.008 0 01.627-1.915l-.312.955.325-.955a1.007 1.007 0 01-.303 1.97v-.007zM33.5 7.119a1.008 1.008 0 01-.223-1.993h.037a1.007 1.007 0 11.36 1.983c-.056.007-.113.01-.17.007l-.003.003zm8.634-.547h-.089a1.01 1.01 0 11.124-2.015l-.06 1.008.083-1.008a1.008 1.008 0 01-.058 2.015z" fill="#724239"/><path d="M19.858 48.51l-.17-.638h-.11v7.809h-1.857V41.917h1.799l1.965 7.172.169.637h.113v-7.809h1.854v13.764h-1.798l-1.965-7.172zM24.558 55.681l2.081-13.764h2.471l2.078 13.764h-1.967l-.373-2.809h-1.947l-.363 2.809h-1.98zm3.429-9.288l-.056-.357h-.113l-.056.357-.581 4.356h1.385l-.58-4.356zM31.002 43.995v-2.078h5.841v2.078h-1.909v11.686H32.92V43.995h-1.917zM43.005 41.917v10.935a3.726 3.726 0 01-.337 1.512 2.572 2.572 0 01-.804 1.007 2.408 2.408 0 01-1.554.469 2.463 2.463 0 01-1.575-.469 2.52 2.52 0 01-.785-1.007 3.779 3.779 0 01-.338-1.512V41.917h2.015v10.935a1.183 1.183 0 00.282.862.537.537 0 00.393.15.591.591 0 00.6-.503c.056-.162.081-.333.073-.504v-10.94h2.03zM48.099 55.681l-1.048-5.806h-.544v5.806H44.49V41.917h2.016c2.418 0 3.446 1.365 3.446 3.97 0 1.368-.356 2.602-1.124 3.126l1.292 6.668H48.1zm-1.592-7.678c.345.02.685-.086.957-.3.3-.252.541-.756.541-1.74 0-.985-.251-1.5-.541-1.764a1.388 1.388 0 00-.957-.282v4.086zM50.683 55.681l2.081-13.764h2.471l2.078 13.764h-1.967l-.373-2.809h-1.947l-.375 2.809h-1.968zm3.429-9.288l-.056-.357h-.113l-.055.357-.582 4.356h1.385l-.58-4.356zM58.25 41.917h2.016v11.89h2.678v1.874H58.25V41.917zM57.774 18.588l-3.955 2.418.121-.06-.773.526c-.123.083-.252.174-.406.277l-.463.35-.524.394c-.181.143-.368.302-.562.463-.194.161-.4.328-.607.504l-.947.866-.317.32c-.212.217-.434.431-.653.658-.42.468-.866.94-1.275 1.456a97.102 97.102 0 00-1.216 1.572c-.4.529-.756 1.093-1.086 1.657-.33.565-.645 1.121-.944 1.66-.142.275-.27.552-.401.816-.066.134-.131.252-.194.396-.063.144-.113.265-.171.393l-.325.756c-.101.252-.184.486-.272.715-.089.23-.174.451-.252.658-.078.206-.131.405-.19.592-.057.186-.115.357-.168.503-.053.146-.09.33-.13.471-.041.142-.087.315-.12.441 3.643 1.547 8.135 0 9.785-3.94.504-1.219.907-2.478 1.204-3.763 2.438-10.275 4.912-11.117 4.912-11.117l-.07.018zM36.614 29.65a9.448 9.448 0 01.633-2.157c-3.613-6.469-15.747-6.028-16.722-5.983l3.456 1.781.587.252c.114.05.252.103.378.166l.436.212.504.252c.174.088.35.189.539.292.189.103.385.207.587.322l.61.373.32.197.317.214c.214.146.436.292.657.446.43.325.887.65 1.318 1.007.43.358.866.756 1.297 1.139.43.383.834.811 1.212 1.242.377.43.755.859 1.098 1.28.169.214.33.43.489.642l.236.312.217.315.416.607c.13.2.252.398.365.585.113.186.23.365.33.544l.282.504c.088.16.171.31.252.45.043.081.078.154.113.225.03-.033.06-.063.089-.096.027-.033.098-.106.143-.159.186-.21.354-.435.504-.672a7.883 7.883 0 01-.794-2.797c.006-.5.05-1.001.131-1.496z" fill="#45A300"/><path d="M42.63 30.722c.388-.534.755-1.093 1.206-1.625.451-.531.89-1.065 1.343-1.591.453-.527.952-1.008 1.456-1.474.504-.466 1.008-.907 1.491-1.333.252-.204.504-.398.756-.592l.363-.284.365-.252.7-.504c.23-.156.459-.297.673-.438.214-.142.42-.275.622-.396l1.078-.625c.159-.085.308-.158.441-.229l.67-.355 3.98-2.436c-1.184.03-16.059.57-19.63 8.867a9.495 9.495 0 00-.63 2.156c-.084.5-.13 1.005-.136 1.512a7.87 7.87 0 00.793 2.796 6.385 6.385 0 001.29 1.763l.184.177c.037.037.078.07.116.105.035-.088.073-.178.115-.277l.252-.564.295-.635c.106-.221.227-.443.348-.68.12-.237.252-.481.385-.728l.446-.756.232-.395.252-.396c.189-.264.36-.539.544-.81zM34.534 35.456l-.17-.419-.193-.48c-.068-.17-.159-.346-.252-.532-.093-.187-.171-.38-.27-.58-.098-.199-.209-.398-.314-.607-.056-.102-.111-.208-.167-.317-.06-.103-.123-.21-.184-.318-.126-.211-.251-.433-.382-.652-.283-.43-.56-.89-.885-1.322-.325-.434-.66-.874-1.007-1.313-.348-.438-.72-.846-1.106-1.234-.386-.388-.756-.768-1.146-1.131-.194-.176-.393-.343-.582-.504l-.282-.252-.84-.662c-.18-.139-.362-.252-.533-.386a4.554 4.554 0 00-.504-.35l-.438-.297-.406-.252c-.126-.078-.252-.144-.353-.207l-.675-.39.104.043-3.431-1.764h-.063s2.106.552 4.746 8.943c.323 1.05.733 2.072 1.224 3.056a6.201 6.201 0 008.366 2.685c-.036-.1-.076-.22-.126-.355-.05-.136-.081-.27-.131-.403zM29.027 64.518h.252V61.93h-.252v-.781h1.345l.098.206a1.19 1.19 0 01.713-.251c.917 0 1.386.705 1.386 1.541 0 .935-.582 1.512-1.34 1.512a1.146 1.146 0 01-.756-.23v.595h.317v.77h-1.763v-.775zm1.857-2.587c-.23 0-.441.29-.419.756 0 .4.2.705.424.705.224 0 .418-.287.418-.736 0-.355-.166-.725-.423-.725zM34.438 64.1h-1.663v-.781h.252v-1.406h-.252v-.755h1.106l.176.375c.152-.282.305-.522.91-.522v1.058c-.53 0-.826.134-.826.653v.604h.292l.005.774zM35.126 62.608a1.534 1.534 0 011.61-1.529c.929.013 1.617.57 1.634 1.552.018.983-.71 1.534-1.604 1.534-.842 0-1.663-.516-1.64-1.557zm2.04.023c0-.44-.154-.78-.43-.788-.23 0-.406.342-.406.77 0 .482.189.799.436.799.246 0 .4-.34.4-.78zM40.597 60.445h-.27v-.756h1.464v3.642h.282v.756h-1.375l-.101-.219a1.106 1.106 0 01-.74.272c-.83 0-1.363-.736-1.363-1.552 0-.917.64-1.498 1.362-1.498.265-.009.525.07.741.221v-.866zm-.418 2.869c.23 0 .44-.29.418-.756 0-.4-.199-.705-.423-.705-.224 0-.418.287-.418.735 0 .355.166.726.423.726zM42.247 61.15h1.42v1.416c0 .503.076.74.318.74a.4.4 0 00.37-.446v-.934h-.385v-.776h1.511v2.156h.29v.794h-1.096l-.158-.37a1.008 1.008 0 01-.837.45c-.886 0-1.181-.458-1.181-1.433v-.811h-.252v-.786zM47.612 61.86c-.345 0-.503.37-.503.756a.629.629 0 00.604.693.877.877 0 00.713-.335l.504.6a2.016 2.016 0 01-1.44.599c-.865 0-1.616-.522-1.616-1.57 0-1.047.693-1.511 1.446-1.511a.94.94 0 01.733.335l.101-.282h.693v1.327h-.864c-.01-.277-.098-.612-.37-.612zM49.076 61.15h.318v-.54l1.08-.347v.887h.56v.756h-.565v1.048c0 .199-.04.468.19.468.126-.015.251-.049.37-.098v.756c-.231.069-.47.107-.711.113-.882 0-.912-.484-.93-1.234V61.91h-.317l.005-.761z" fill="#45A300"/></g><defs><clipPath id="clip0"><path fill="#fff" d="M0 0h80v80.002H0z"/></clipPath></defs></svg>